<svg id="Layer_1" data-name="Layer 1" xmlns="http://www.w3.org/2000/svg" xmlns:xlink="http://www.w3.org/1999/xlink" viewBox="0 0 115 115"><defs><style>.cls-1,.cls-3{clip-path:url(#clip-path);}.cls-1{filter:url(#luminosity-invert);}.cls-2{fill:none;}.cls-4{mask:url(#mask);}.cls-5{fill:#fff;}</style><clipPath id="clip-path"><rect class="cls-2" width="130" height="130"/></clipPath><filter id="luminosity-invert" filterUnits="userSpaceOnUse" color-interpolation-filters="sRGB"><feColorMatrix values="-1 0 0 0 1 0 -1 0 0 1 0 0 -1 0 1 0 0 0 1 0"/></filter><mask id="mask" x="-9.5" y="-164.5" width="449.5" height="308.5" maskUnits="userSpaceOnUse"><g class="cls-1"><g class="cls-3"><path d="M71.5698,27.2197c-.4,1.41-1.52,4.66-3,8.85-1.18-.05-2.37-.07-3.57-.07-24.77,0-45.37,10.241-49.67,23.75a48.60663,48.60663,0,0,1,2.69-11.85,49.74337,49.74337,0,0,1,3.08-6.82c.5-.92,1.03-1.83,1.58-2.71a50.19152,50.19152,0,0,1,11.12-12.44c7.84-6.25,18.15-10.38,27.99-10.38,3.88,0,9.3.65,10.44,4.5.61,2.03.01,4.78-.66,7.17"/><path d="M114.5098,59.2798c-3.49-10.06-16.06-18.24-32.6-21.61,1.46-3.93,2.59-6.87,3.08-7.94.9-2.01,2.21-4.56,4.24-5.2,3.95-1.25,10.93,4.64,15.43,10.53a50.43122,50.43122,0,0,1,9.85,24.22"/><path d="M66.3398,42.29c-2.41,6.67-5.2,14.32-7.45,20.49-2.23,6.12-4.98,13.71-7.46,20.48a22.75018,22.75018,0,0,1,13.57-41.01c.45,0,.9.01,1.34.04"/><path d="M87.75,65A22.75574,22.75574,0,0,1,65,87.75c-.45,0-.9-.01-1.34-.04,2.41-6.68,5.2-14.32,7.45-20.49,2.23-6.12,4.98-13.71,7.46-20.48A22.72014,22.72014,0,0,1,87.75,65"/><path d="M114.6699,70.25a48.607,48.607,0,0,1-2.69,11.85,49.6878,49.6878,0,0,1-3.08,6.82c-.5.92-1.03,1.83-1.58,2.71a49.99411,49.99411,0,0,1-11.12,12.44c-7.83,6.25-18.15,10.38-27.99,10.38-3.88,0-9.3-.66-10.44-4.5-.61-2.03-.01-4.78.66-7.17.4-1.41,1.52-4.67,3.01-8.85,1.17.05,2.36.07,3.56.07,24.77,0,45.37-10.24,49.67-23.75"/><path d="M48.0898,92.3301c-1.46,3.93-2.59,6.87-3.08,7.939-.9,2.011-2.21,4.561-4.24,5.201-3.95,1.24-10.93-4.64-15.43-10.53a50.43122,50.43122,0,0,1-9.85-24.22c3.49,10.06,16.06,18.24,32.6,21.61"/></g></g></mask></defs><title>fii_pelle2-valk</title><g class="cls-4"><rect class="cls-5" x="-9.5" y="-164.5" width="449.5" height="308.5"/></g></svg>